# xmcd CD database file
#
# Track frame offsets:
#	150
#	23348
#	40219
#	58278
#	74189
#	100096
#	118018
#	139488
#	154466
#	175017
#	191633
#	216426
#	231772
#
# Disc length: 3380 seconds
#
# Revision: 2
# Processed by: cddbd v1.5.2PL0 Copyright (c) Steve Scherf et al.
# Submitted via: CDex 1.70beta2
#
DISCID=c50d320d
DTITLE=Paul Millns - Against The Tide
DYEAR=1993
DGENRE=Jazz
TTITLE0=Drive She Said
TTITLE1=When Love Comes Calling
TTITLE2=Unwelcome Neighbour
TTITLE3=Rise And Shine
TTITLE4=Don't Wait Too Long
TTITLE5=No-one On The Street
TTITLE6=God Save The Self-doubter
TTITLE7=She Likes The Rain
TTITLE8=Watching The Dinosaurs
TTITLE9=Highway Eyes
TTITLE10=Dark Water
TTITLE11=Back On Your Bike Boy
TTITLE12=The Meaning Of The Word
EXTD=YEAR: 1993
EXTT0=
EXTT1=
EXTT2=
EXTT3=
EXTT4=
EXTT5=
EXTT6=
EXTT7=
EXTT8=
EXTT9=
EXTT10=
EXTT11=
EXTT12=
PLAYORDER=
